# xmcd CD database file
#
# Track frame offsets:
#	150
#	26650
#	38760
#	55294
#	66513
#	77685
#	95066
#	107187
#	123356
#	149027
#	164548
#	175493
#	189849
#	206163
#	221219
#	232906
#
# Disc length: 3290 seconds
#
# Revision: 3
# Processed by: cddbd v1.5.1PL0 Copyright (c) Steve Scherf et al.
# Submitted via: CDex 1.50
#
DISCID=f40cd810
DTITLE=Smolari - Zlate trampske casy
DYEAR=1900
DGENRE=Country
TTITLE0=Smes pisni
TTITLE1=Jedu noci
TTITLE2=V lese se smraka
TTITLE3=Soumrak
TTITLE4=Navrat
TTITLE5=Svitani
TTITLE6=Bile canoe
TTITLE7=Mala ricka
TTITLE8=Smes pisni
TTITLE9=Stiny na prerii
TTITLE10=Vapenny kanon
TTITLE11=Ohen nas
TTITLE12=Leti sip
TTITLE13=Jizni kriz
TTITLE14=Shady lady
TTITLE15=Jeden z nas
EXTD=
EXTT0=
EXTT1=
EXTT2=
EXTT3=
EXTT4=
EXTT5=
EXTT6=
EXTT7=
EXTT8=
EXTT9=
EXTT10=
EXTT11=
EXTT12=
EXTT13=
EXTT14=
EXTT15=
PLAYORDER=
